<?xml version="1.0" standalone="no"?>
<!DOCTYPE svg PUBLIC "-//W3C//DTD SVG 20010904//EN"
 "http://www.w3.org/TR/2001/REC-SVG-20010904/DTD/svg10.dtd">
<svg version="1.0" xmlns="http://www.w3.org/2000/svg"
 width="592.000000pt" height="418.000000pt" viewBox="0 0 592.000000 418.000000"
 preserveAspectRatio="xMidYMid meet">

<g transform="translate(0.000000,418.000000) scale(0.100000,-0.100000)"
fill="#FF325D" stroke="none">
<path d="M3110 3119 c-348 -52 -652 -166 -915 -342 -134 -89 -166 -118 -465
-412 -349 -343 -455 -433 -698 -593 -193 -128 -409 -238 -571 -291 -79 -26
-101 -44 -101 -86 0 -36 26 -65 59 -65 30 0 238 80 351 135 171 85 419 237
540 334 187 148 320 272 613 570 164 166 291 268 438 354 120 69 313 157 389
177 25 6 72 20 105 31 208 68 600 93 795 51 344 -74 543 -256 634 -579 21 -72
46 -213 46 -254 0 -24 -18 -4 -43 47 -39 79 -109 182 -159 235 -97 101 -187
139 -328 139 -244 0 -431 -151 -497 -400 -23 -88 -23 -284 0 -410 39 -210 151
-478 284 -680 148 -223 411 -456 626 -555 368 -169 761 -193 1195 -74 123 34
162 57 162 95 0 72 -38 83 -162 45 -197 -61 -295 -75 -513 -75 -180 0 -212 3
-315 26 -366 84 -644 274 -867 592 -158 226 -275 542 -289 786 -14 220 45 374
172 459 136 89 311 79 419 -26 49 -48 131 -175 195 -304 62 -124 101 -169 144
-169 71 1 98 59 104 225 5 138 -12 247 -59 390 -100 300 -296 494 -596 588
-182 58 -455 72 -693 36z"/>
</g>
</svg>
